<svg id="visual" viewBox="0 0 960 540" width="960" height="540" xmlns="http://www.w3.org/2000/svg" xmlns:xlink="http://www.w3.org/1999/xlink" version="1.1"><path d="M0 423L8.5 421.2C17 419.3 34 415.7 50.8 416.2C67.7 416.7 84.3 421.3 101.2 421.8C118 422.3 135 418.7 151.8 415.2C168.7 411.7 185.3 408.3 202.2 410C219 411.7 236 418.3 252.8 425.8C269.7 433.3 286.3 441.7 303.2 446C320 450.3 337 450.7 353.8 445.7C370.7 440.7 387.3 430.3 404.2 425.8C421 421.3 438 422.7 454.8 423.3C471.7 424 488.3 424 505.2 425.5C522 427 539 430 555.8 428.8C572.7 427.7 589.3 422.3 606.2 420.7C623 419 640 421 656.8 425.2C673.7 429.3 690.3 435.7 707.2 437.8C724 440 741 438 757.8 432.8C774.7 427.7 791.3 419.3 808.2 415.7C825 412 842 413 858.8 413.7C875.7 414.3 892.3 414.7 909.2 419C926 423.3 943 431.7 951.5 435.8L960 440L960 541L951.5 541C943 541 926 541 909.2 541C892.3 541 875.7 541 858.8 541C842 541 825 541 808.2 541C791.3 541 774.7 541 757.8 541C741 541 724 541 707.2 541C690.3 541 673.7 541 656.8 541C640 541 623 541 606.2 541C589.3 541 572.7 541 555.8 541C539 541 522 541 505.2 541C488.3 541 471.7 541 454.8 541C438 541 421 541 404.2 541C387.3 541 370.7 541 353.8 541C337 541 320 541 303.2 541C286.3 541 269.7 541 252.8 541C236 541 219 541 202.2 541C185.3 541 168.7 541 151.8 541C135 541 118 541 101.2 541C84.3 541 67.7 541 50.8 541C34 541 17 541 8.5 541L0 541Z" fill="#001c36"></path><path d="M0 425L8.5 428.7C17 432.3 34 439.7 50.8 442.2C67.7 444.7 84.3 442.3 101.2 440.5C118 438.7 135 437.3 151.8 435.3C168.7 433.3 185.3 430.7 202.2 432.5C219 434.3 236 440.7 252.8 446.7C269.7 452.7 286.3 458.3 303.2 461.2C320 464 337 464 353.8 462C370.7 460 387.3 456 404.2 449.5C421 443 438 434 454.8 431.2C471.7 428.3 488.3 431.7 505.2 431.2C522 430.7 539 426.3 555.8 424.5C572.7 422.7 589.3 423.3 606.2 429.2C623 435 640 446 656.8 445.8C673.7 445.7 690.3 434.3 707.2 435.3C724 436.3 741 449.7 757.8 456.5C774.7 463.3 791.3 463.7 808.2 458.8C825 454 842 444 858.8 440.8C875.7 437.7 892.3 441.3 909.2 443.2C926 445 943 445 951.5 445L960 445L960 541L951.5 541C943 541 926 541 909.2 541C892.3 541 875.7 541 858.8 541C842 541 825 541 808.2 541C791.3 541 774.7 541 757.8 541C741 541 724 541 707.2 541C690.3 541 673.7 541 656.8 541C640 541 623 541 606.2 541C589.3 541 572.7 541 555.8 541C539 541 522 541 505.2 541C488.3 541 471.7 541 454.8 541C438 541 421 541 404.2 541C387.3 541 370.7 541 353.8 541C337 541 320 541 303.2 541C286.3 541 269.7 541 252.8 541C236 541 219 541 202.2 541C185.3 541 168.7 541 151.8 541C135 541 118 541 101.2 541C84.3 541 67.7 541 50.8 541C34 541 17 541 8.5 541L0 541Z" fill="#00284d"></path><path d="M0 443L8.5 447.5C17 452 34 461 50.8 465.2C67.7 469.3 84.3 468.7 101.2 464C118 459.3 135 450.7 151.8 446.8C168.7 443 185.3 444 202.2 446.8C219 449.7 236 454.3 252.8 457.5C269.7 460.7 286.3 462.3 303.2 459C320 455.7 337 447.3 353.8 445.3C370.7 443.3 387.3 447.7 404.2 449.8C421 452 438 452 454.8 454.7C471.7 457.3 488.3 462.7 505.2 463.2C522 463.7 539 459.3 555.8 457.5C572.7 455.7 589.3 456.3 606.2 454.8C623 453.3 640 449.7 656.8 446.8C673.7 444 690.3 442 707.2 442C724 442 741 444 757.8 446.2C774.7 448.3 791.3 450.7 808.2 452.8C825 455 842 457 858.8 460.2C875.7 463.3 892.3 467.7 909.2 469.2C926 470.7 943 469.3 951.5 468.7L960 468L960 541L951.5 541C943 541 926 541 909.2 541C892.3 541 875.7 541 858.8 541C842 541 825 541 808.2 541C791.3 541 774.7 541 757.8 541C741 541 724 541 707.2 541C690.3 541 673.7 541 656.8 541C640 541 623 541 606.2 541C589.3 541 572.7 541 555.8 541C539 541 522 541 505.2 541C488.3 541 471.7 541 454.8 541C438 541 421 541 404.2 541C387.3 541 370.7 541 353.8 541C337 541 320 541 303.2 541C286.3 541 269.7 541 252.8 541C236 541 219 541 202.2 541C185.3 541 168.7 541 151.8 541C135 541 118 541 101.2 541C84.3 541 67.7 541 50.8 541C34 541 17 541 8.5 541L0 541Z" fill="#003566"></path><path d="M0 473L8.5 470.7C17 468.3 34 463.7 50.8 460.8C67.7 458 84.3 457 101.2 461.5C118 466 135 476 151.8 477.8C168.7 479.7 185.3 473.3 202.2 472.7C219 472 236 477 252.8 477.3C269.7 477.7 286.3 473.3 303.2 471.8C320 470.3 337 471.7 353.8 473.2C370.7 474.7 387.3 476.3 404.2 473.5C421 470.7 438 463.3 454.8 465.2C471.7 467 488.3 478 505.2 482C522 486 539 483 555.8 480.8C572.7 478.7 589.3 477.3 606.2 473.7C623 470 640 464 656.8 464.2C673.7 464.3 690.3 470.7 707.2 470.7C724 470.7 741 464.3 757.8 463.2C774.7 462 791.3 466 808.2 470.3C825 474.7 842 479.3 858.8 477.7C875.7 476 892.3 468 909.2 468C926 468 943 476 951.5 480L960 484L960 541L951.5 541C943 541 926 541 909.2 541C892.3 541 875.7 541 858.8 541C842 541 825 541 808.2 541C791.3 541 774.7 541 757.8 541C741 541 724 541 707.2 541C690.3 541 673.7 541 656.8 541C640 541 623 541 606.2 541C589.3 541 572.7 541 555.8 541C539 541 522 541 505.2 541C488.3 541 471.7 541 454.8 541C438 541 421 541 404.2 541C387.3 541 370.7 541 353.8 541C337 541 320 541 303.2 541C286.3 541 269.7 541 252.8 541C236 541 219 541 202.2 541C185.3 541 168.7 541 151.8 541C135 541 118 541 101.2 541C84.3 541 67.7 541 50.8 541C34 541 17 541 8.5 541L0 541Z" fill="#00427f"></path><path d="M0 485L8.5 484.3C17 483.7 34 482.3 50.8 480.5C67.7 478.7 84.3 476.3 101.2 478C118 479.7 135 485.3 151.8 486C168.7 486.7 185.3 482.3 202.2 484C219 485.7 236 493.3 252.8 497C269.7 500.7 286.3 500.3 303.2 500C320 499.7 337 499.3 353.8 496.3C370.7 493.3 387.3 487.7 404.2 486.2C421 484.7 438 487.3 454.8 489.5C471.7 491.7 488.3 493.3 505.2 492.2C522 491 539 487 555.8 485.3C572.7 483.7 589.3 484.3 606.2 485.7C623 487 640 489 656.8 492C673.7 495 690.3 499 707.2 500.3C724 501.7 741 500.3 757.8 499.2C774.7 498 791.3 497 808.2 497.7C825 498.3 842 500.7 858.8 498.3C875.7 496 892.3 489 909.2 486.2C926 483.3 943 484.7 951.5 485.3L960 486L960 541L951.5 541C943 541 926 541 909.2 541C892.3 541 875.7 541 858.8 541C842 541 825 541 808.2 541C791.3 541 774.7 541 757.8 541C741 541 724 541 707.2 541C690.3 541 673.7 541 656.8 541C640 541 623 541 606.2 541C589.3 541 572.7 541 555.8 541C539 541 522 541 505.2 541C488.3 541 471.7 541 454.8 541C438 541 421 541 404.2 541C387.3 541 370.7 541 353.8 541C337 541 320 541 303.2 541C286.3 541 269.7 541 252.8 541C236 541 219 541 202.2 541C185.3 541 168.7 541 151.8 541C135 541 118 541 101.2 541C84.3 541 67.7 541 50.8 541C34 541 17 541 8.5 541L0 541Z" fill="#004f99"></path><path d="M0 511L8.5 510.3C17 509.7 34 508.3 50.8 507.5C67.7 506.7 84.3 506.3 101.2 505.2C118 504 135 502 151.8 503C168.7 504 185.3 508 202.2 507.3C219 506.7 236 501.3 252.8 498.8C269.7 496.3 286.3 496.7 303.2 498.2C320 499.7 337 502.3 353.8 502.3C370.7 502.3 387.3 499.7 404.2 498.3C421 497 438 497 454.8 497.8C471.7 498.7 488.3 500.3 505.2 501.8C522 503.3 539 504.7 555.8 504.7C572.7 504.7 589.3 503.3 606.2 503.2C623 503 640 504 656.8 505.7C673.7 507.3 690.3 509.7 707.2 507.7C724 505.7 741 499.3 757.8 496.8C774.7 494.3 791.3 495.7 808.2 497.3C825 499 842 501 858.8 501C875.7 501 892.3 499 909.2 500.2C926 501.3 943 505.7 951.5 507.8L960 510L960 541L951.5 541C943 541 926 541 909.2 541C892.3 541 875.7 541 858.8 541C842 541 825 541 808.2 541C791.3 541 774.7 541 757.8 541C741 541 724 541 707.2 541C690.3 541 673.7 541 656.8 541C640 541 623 541 606.2 541C589.3 541 572.7 541 555.8 541C539 541 522 541 505.2 541C488.3 541 471.7 541 454.8 541C438 541 421 541 404.2 541C387.3 541 370.7 541 353.8 541C337 541 320 541 303.2 541C286.3 541 269.7 541 252.8 541C236 541 219 541 202.2 541C185.3 541 168.7 541 151.8 541C135 541 118 541 101.2 541C84.3 541 67.7 541 50.8 541C34 541 17 541 8.5 541L0 541Z" fill="#005db4"></path><path d="M0 519L8.5 518.2C17 517.3 34 515.7 50.8 515.8C67.7 516 84.3 518 101.2 518.2C118 518.3 135 516.7 151.8 514.8C168.7 513 185.3 511 202.2 511.7C219 512.3 236 515.7 252.8 517.2C269.7 518.7 286.3 518.3 303.2 520C320 521.7 337 525.3 353.8 527C370.7 528.7 387.3 528.3 404.2 528.3C421 528.3 438 528.7 454.8 526.7C471.7 524.7 488.3 520.3 505.2 517.7C522 515 539 514 555.8 515.2C572.7 516.3 589.3 519.7 606.2 521.5C623 523.3 640 523.7 656.8 522C673.7 520.3 690.3 516.7 707.2 514.7C724 512.7 741 512.3 757.8 513.7C774.7 515 791.3 518 808.2 518C825 518 842 515 858.8 514.3C875.7 513.7 892.3 515.3 909.2 516.8C926 518.3 943 519.7 951.5 520.3L960 521L960 541L951.5 541C943 541 926 541 909.2 541C892.3 541 875.7 541 858.8 541C842 541 825 541 808.2 541C791.3 541 774.7 541 757.8 541C741 541 724 541 707.2 541C690.3 541 673.7 541 656.8 541C640 541 623 541 606.2 541C589.3 541 572.7 541 555.8 541C539 541 522 541 505.2 541C488.3 541 471.7 541 454.8 541C438 541 421 541 404.2 541C387.3 541 370.7 541 353.8 541C337 541 320 541 303.2 541C286.3 541 269.7 541 252.8 541C236 541 219 541 202.2 541C185.3 541 168.7 541 151.8 541C135 541 118 541 101.2 541C84.3 541 67.7 541 50.8 541C34 541 17 541 8.5 541L0 541Z" fill="#006bcf"></path></svg>